<svg xmlns="http://www.w3.org/2000/svg" xmlns:xlink="http://www.w3.org/1999/xlink" width="500" zoomAndPan="magnify" viewBox="0 0 375 374.999991" height="500" preserveAspectRatio="xMidYMid meet" version="1.0"><defs><g/><clipPath id="8296168cea"><path d="M 199 162 L 259 162 L 259 282 L 199 282 Z M 199 162 " clip-rule="nonzero"/></clipPath><clipPath id="cfb2b74f24"><path d="M 197.195312 277.265625 L 245.789062 160.367188 L 261.539062 166.914062 L 212.949219 283.8125 Z M 197.195312 277.265625 " clip-rule="nonzero"/></clipPath><clipPath id="6f1d5e58f3"><path d="M 200.472656 269.390625 L 242.515625 168.246094 C 243.382812 166.15625 245.046875 164.5 247.136719 163.636719 C 249.226562 162.773438 251.574219 162.777344 253.664062 163.644531 C 255.753906 164.511719 257.410156 166.175781 258.273438 168.265625 C 259.136719 170.359375 259.132812 172.707031 258.265625 174.792969 L 216.222656 275.9375 C 215.351562 278.027344 213.691406 279.683594 211.601562 280.546875 C 209.507812 281.410156 207.160156 281.40625 205.070312 280.539062 C 202.984375 279.671875 201.324219 278.007812 200.460938 275.917969 C 199.597656 273.828125 199.601562 271.476562 200.472656 269.390625 Z M 200.472656 269.390625 " clip-rule="nonzero"/></clipPath></defs><rect x="-37.5" width="450" fill="#ffffff" y="-37.499999" height="449.999989" fill-opacity="1"/><rect x="-37.5" width="450" fill="#ffffff" y="-37.499999" height="449.999989" fill-opacity="1"/><g fill="#373737" fill-opacity="1"><g transform="translate(69.69491, 311.534452)"><g><path d="M 182.21875 -157.3125 C 170.351562 -157.3125 160.148438 -161.582031 151.609375 -170.125 C 143.066406 -178.664062 138.796875 -188.867188 138.796875 -200.734375 C 138.796875 -212.585938 143.066406 -222.664062 151.609375 -230.96875 C 160.148438 -239.28125 170.351562 -243.4375 182.21875 -243.4375 C 194.082031 -243.4375 204.164062 -239.28125 212.46875 -230.96875 C 220.769531 -222.664062 224.921875 -212.585938 224.921875 -200.734375 C 224.921875 -188.867188 220.769531 -178.664062 212.46875 -170.125 C 204.164062 -161.582031 194.082031 -157.3125 182.21875 -157.3125 Z M 29.890625 0 L 29.890625 -237.03125 L 118.15625 -237.03125 L 118.15625 0 Z M 29.890625 0 "/></g></g></g><g clip-path="url(#8296168cea)"><g clip-path="url(#cfb2b74f24)"><g clip-path="url(#6f1d5e58f3)"><path fill="#373737" d="M 197.195312 277.265625 L 245.789062 160.367188 L 261.539062 166.914062 L 212.949219 283.8125 Z M 197.195312 277.265625 " fill-opacity="1" fill-rule="nonzero"/></g></g></g></svg>