<svg xmlns="http://www.w3.org/2000/svg" xmlns:xlink="http://www.w3.org/1999/xlink" width="500" zoomAndPan="magnify" viewBox="0 0 375 374.999991" height="500" preserveAspectRatio="xMidYMid meet" version="1.0"><path fill="#27251f" d="M 249.121094 188.457031 C 274.726562 194.738281 296.847656 200.0625 318.90625 205.640625 C 326.15625 207.007812 333.132812 209.238281 339.832031 212.335938 C 348.734375 217.167969 347.910156 226.226562 339.054688 231.132812 C 336.273438 232.367188 333.382812 233.214844 330.375 233.671875 C 327.367188 234.128906 324.355469 234.183594 321.335938 233.835938 C 293.820312 233.449219 266.246094 234.902344 238.863281 230.445312 C 230.316406 229.515625 221.742188 229.019531 213.140625 228.960938 C 217.898438 243.308594 226.863281 253.0625 234.675781 263.492188 C 245.558594 278 256.625 292.339844 267.398438 306.917969 C 271.71875 312.761719 277.5 318.90625 269.925781 326.300781 C 262.957031 333.113281 255.976562 328.773438 249.644531 325.222656 C 240.261719 319.921875 231.410156 313.847656 223.09375 306.992188 C 214.773438 300.140625 207.117188 292.613281 200.121094 284.414062 C 197.28125 281.113281 195.84375 275.753906 188.347656 276.109375 C 184.964844 301.117188 178.863281 325.441406 170.042969 349.085938 C 168.066406 354.074219 166.171875 359.105469 163.875 363.925781 C 163.675781 364.484375 163.433594 365.023438 163.144531 365.539062 C 162.855469 366.054688 162.523438 366.542969 162.148438 367.003906 C 161.777344 367.460938 161.367188 367.886719 160.921875 368.277344 C 160.476562 368.664062 160 369.015625 159.496094 369.324219 C 158.988281 369.632812 158.460938 369.894531 157.910156 370.113281 C 157.359375 370.332031 156.792969 370.5 156.214844 370.621094 C 155.636719 370.742188 155.050781 370.8125 154.457031 370.835938 C 153.867188 370.855469 153.277344 370.828125 152.691406 370.75 C 152.019531 370.675781 151.359375 370.542969 150.710938 370.351562 C 150.0625 370.160156 149.433594 369.910156 148.832031 369.605469 C 148.226562 369.304688 147.65625 368.949219 147.113281 368.542969 C 146.574219 368.136719 146.074219 367.683594 145.613281 367.1875 C 145.152344 366.695312 144.742188 366.160156 144.378906 365.589844 C 144.011719 365.023438 143.703125 364.425781 143.445312 363.800781 C 143.1875 363.175781 142.984375 362.53125 142.84375 361.871094 C 142.699219 361.210938 142.617188 360.542969 142.59375 359.867188 C 141.980469 353.136719 142.375 346.464844 143.78125 339.855469 C 148.035156 313.449219 152.019531 287.003906 155.996094 261.234375 C 150.460938 256.03125 146.265625 259.660156 142.09375 260.890625 C 113.128906 269.414062 84.214844 278.117188 55.234375 286.542969 C 46.296875 289.148438 35.132812 293.636719 30.679688 281.859375 C 26.40625 270.632812 37.046875 265.65625 45.367188 261.207031 C 64.902344 250.738281 84.5625 240.511719 104.109375 230.070312 C 109.273438 227.308594 115.59375 226.289062 120.253906 218.871094 C 102.742188 215.628906 86.089844 212.714844 69.519531 209.410156 C 61.59375 208.007812 53.828125 205.988281 46.222656 203.351562 C 45.566406 203.171875 44.933594 202.929688 44.320312 202.632812 C 43.707031 202.332031 43.132812 201.976562 42.585938 201.566406 C 42.042969 201.152344 41.542969 200.695312 41.085938 200.191406 C 40.628906 199.683594 40.222656 199.140625 39.867188 198.558594 C 39.515625 197.976562 39.21875 197.363281 38.980469 196.726562 C 38.742188 196.085938 38.566406 195.433594 38.453125 194.757812 C 38.339844 194.085938 38.292969 193.410156 38.308594 192.730469 C 38.324219 192.046875 38.402344 191.375 38.546875 190.707031 C 38.667969 190.039062 38.84375 189.386719 39.078125 188.75 C 39.316406 188.113281 39.605469 187.5 39.949219 186.914062 C 40.292969 186.332031 40.6875 185.78125 41.132812 185.265625 C 41.574219 184.75 42.058594 184.28125 42.585938 183.851562 C 43.113281 183.425781 43.675781 183.046875 44.269531 182.71875 C 44.867188 182.390625 45.484375 182.117188 46.128906 181.902344 C 46.773438 181.683594 47.429688 181.527344 48.101562 181.425781 C 48.773438 181.328125 49.449219 181.289062 50.128906 181.308594 C 60.871094 181.101562 71.625 181.210938 82.382812 181.199219 C 93.011719 181.199219 103.652344 181.199219 114.042969 181.199219 C 115.890625 173.855469 111.207031 170.136719 108.496094 165.78125 C 96.765625 147.746094 86.113281 129.097656 76.539062 109.832031 C 73.53125 103.453125 71.304688 96.800781 77.75 91.472656 C 84.953125 85.539062 92.125 88.789062 97.5625 94.273438 C 114.101562 110.972656 130.210938 128.101562 146.355469 145.183594 C 153.210938 152.433594 159.75 159.984375 168.21875 169.382812 C 175.753906 153.292969 176.386719 138.027344 177.617188 123.375 C 180.433594 89.738281 188.613281 57.257812 196.238281 24.625 C 198.320312 15.699219 200.800781 4.15625 213.058594 5.578125 C 224.839844 6.945312 225.957031 18.625 226.011719 27.789062 C 226.5 68.140625 223.554688 108.246094 217.179688 148.09375 C 217.011719 150.039062 216.996094 151.984375 217.136719 153.929688 C 224.761719 153.304688 229.058594 147.65625 234.027344 143.386719 C 254.367188 126.683594 276.4375 112.710938 300.234375 101.472656 C 303.207031 99.894531 306.289062 98.574219 309.480469 97.515625 C 310.105469 97.253906 310.742188 97.046875 311.398438 96.886719 C 312.054688 96.722656 312.71875 96.613281 313.390625 96.558594 C 314.0625 96.5 314.734375 96.492188 315.410156 96.539062 C 316.082031 96.582031 316.746094 96.679688 317.40625 96.828125 C 318.0625 96.972656 318.707031 97.171875 319.335938 97.417969 C 319.964844 97.664062 320.570312 97.957031 321.152344 98.296875 C 321.734375 98.636719 322.289062 99.019531 322.8125 99.445312 C 323.335938 99.871094 323.824219 100.332031 324.277344 100.832031 C 328.628906 105.746094 326.75 110.726562 324.148438 115.734375 C 320.25 122.09375 315.402344 127.621094 309.601562 132.308594 C 290.539062 150.125 271.367188 167.824219 249.121094 188.457031 Z M 249.121094 188.457031 " fill-opacity="1" fill-rule="nonzero"/></svg>